[Header]
FileType HTR
DataType HTRS
FileVersion 1
NumSegments 64
NumFrames 4
DataFrameRate 24
EulerRotationOrder ZYX
CalibrationUnits mm
RotationUnits Degrees
GlobalAxisofGravity Y
BoneLengthAxis Y
ScaleFactor 1.0
[SegmentNames&Hierarchy]
Hips	GLOBAL
Spine	Hips
Spine1	Spine
Spine2	Spine1
Neck	Spine2
Head	Neck
LeftEye	Head
RightEye	Head
LeftShoulder	Spine2
LeftArm	LeftShoulder
LeftForeArm	LeftArm
LeftHand	LeftForeArm
LeftHandThumb1	LeftHand
LeftHandThumb2	LeftHandThumb1
LeftHandThumb3	LeftHandThumb2
LeftHandThumb4	LeftHandThumb3
LeftHandIndex1	LeftHand
LeftHandIndex2	LeftHandIndex1
LeftHandIndex3	LeftHandIndex2
LeftHandIndex4	LeftHandIndex3
LeftHandMiddle1	LeftHand
LeftHandMiddle2	LeftHandMiddle1
LeftHandMiddle3	LeftHandMiddle2
LeftHandMiddle4	LeftHandMiddle3
LeftHandRing1	LeftHand
LeftHandRing2	LeftHandRing1
LeftHandRing3	LeftHandRing2
LeftHandRing4	LeftHandRing3
LeftHandPinky1	LeftHand
LeftHandPinky2	LeftHandPinky1
LeftHandPinky3	LeftHandPinky2
LeftHandPinky4	LeftHandPinky3
RightShoulder	Spine2
RightArm	RightShoulder
RightForeArm	RightArm
RightHand	RightForeArm
RightHandPinky1	RightHand
RightHandPinky2	RightHandPinky1
RightHandPinky3	RightHandPinky2
RightHandPinky4	RightHandPinky3
RightHandRing1	RightHand
RightHandRing2	RightHandRing1
RightHandRing3	RightHandRing2
RightHandRing4	RightHandRing3
RightHandMiddle1	RightHand
RightHandMiddle2	RightHandMiddle1
RightHandMiddle3	RightHandMiddle2
RightHandMiddle4	RightHandMiddle3
RightHandIndex1	RightHand
RightHandIndex2	RightHandIndex1
RightHandIndex3	RightHandIndex2
RightHandIndex4	RightHandIndex3
RightHandThumb1	RightHand
RightHandThumb2	RightHandThumb1
RightHandThumb3	RightHandThumb2
RightHandThumb4	RightHandThumb3
LeftUpLeg	Hips
LeftLeg	LeftUpLeg
LeftFoot	LeftLeg
LeftToeBase	LeftFoot
RightUpLeg	Hips
RightLeg	RightUpLeg
RightFoot	RightLeg
RightToeBase	RightFoot
[BasePosition]
Hips	0	0	0	0	0	0	1
Spine	0	0	0	0	0	0	1
Spine1	0	0	0	0	0	0	1
Spine2	0	0	0	0	0	0	1
Neck	0	0	0	0	0	0	1
Head	0	0	0	0	0	0	1
LeftEye	0	0	0	0	0	0	1
RightEye	0	0	0	0	0	0	1
LeftShoulder	0	0	0	0	0	0	1
LeftArm	0	0	0	0	0	0	1
LeftForeArm	0	0	0	0	0	0	1
LeftHand	0	0	0	0	0	0	1
LeftHandThumb1	0	0	0	0	0	0	1
LeftHandThumb2	0	0	0	0	0	0	1
LeftHandThumb3	0	0	0	0	0	0	1
LeftHandThumb4	0	0	0	0	0	0	1
LeftHandIndex1	0	0	0	0	0	0	1
LeftHandIndex2	0	0	0	0	0	0	1
LeftHandIndex3	0	0	0	0	0	0	1
LeftHandIndex4	0	0	0	0	0	0	1
LeftHandMiddle1	0	0	0	0	0	0	1
LeftHandMiddle2	0	0	0	0	0	0	1
LeftHandMiddle3	0	0	0	0	0	0	1
LeftHandMiddle4	0	0	0	0	0	0	1
LeftHandRing1	0	0	0	0	0	0	1
LeftHandRing2	0	0	0	0	0	0	1
LeftHandRing3	0	0	0	0	0	0	1
LeftHandRing4	0	0	0	0	0	0	1
LeftHandPinky1	0	0	0	0	0	0	1
LeftHandPinky2	0	0	0	0	0	0	1
LeftHandPinky3	0	0	0	0	0	0	1
LeftHandPinky4	0	0	0	0	0	0	1
RightShoulder	0	0	0	0	0	0	1
RightArm	0	0	0	0	0	0	1
RightForeArm	0	0	0	0	0	0	1
RightHand	0	0	0	0	0	0	1
RightHandPinky1	0	0	0	0	0	0	1
RightHandPinky2	0	0	0	0	0	0	1
RightHandPinky3	0	0	0	0	0	0	1
RightHandPinky4	0	0	0	0	0	0	1
RightHandRing1	0	0	0	0	0	0	1
RightHandRing2	0	0	0	0	0	0	1
RightHandRing3	0	0	0	0	0	0	1
RightHandRing4	0	0	0	0	0	0	1
RightHandMiddle1	0	0	0	0	0	0	1
RightHandMiddle2	0	0	0	0	0	0	1
RightHandMiddle3	0	0	0	0	0	0	1
RightHandMiddle4	0	0	0	0	0	0	1
RightHandIndex1	0	0	0	0	0	0	1
RightHandIndex2	0	0	0	0	0	0	1
RightHandIndex3	0	0	0	0	0	0	1
RightHandIndex4	0	0	0	0	0	0	1
RightHandThumb1	0	0	0	0	0	0	1
RightHandThumb2	0	0	0	0	0	0	1
RightHandThumb3	0	0	0	0	0	0	1
RightHandThumb4	0	0	0	0	0	0	1
LeftUpLeg	0	0	0	0	0	0	1
LeftLeg	0	0	0	0	0	0	1
LeftFoot	0	0	0	0	0	0	1
LeftToeBase	0	0	0	0	0	0	1
RightUpLeg	0	0	0	0	0	0	1
RightLeg	0	0	0	0	0	0	1
RightFoot	0	0	0	0	0	0	1
RightToeBase	0	0	0	0	0	0	1
[Hips]
75	-66.35169983	990.5343018	-8.454071045	0.1893646419	-2.492183447	3.912074089	1.0
76	-71.88001251	993.9651489	-9.336046219	0.8326481581	-6.177216053	5.081872463	1.0
77	-74.97982788	990.7766113	-10.93283749	0.9343915582	-11.30953503	6.844000816	1.0
78	-74.98516846	979.7423706	-12.44480991	0.09915112704	-16.80882645	9.400640488	1.0
[Spine]
75	9.234152094e-05	101.8158798	1.31520927	2.583142042	-10.22114468	8.942789078	1.0
76	9.234152094e-05	101.8158798	1.31520927	2.384273767	-9.607603073	8.937539101	1.0
77	9.234152094e-05	101.8158798	1.31520927	3.491834879	-8.063023567	8.621668816	1.0
78	9.234152094e-05	101.8158798	1.31520927	5.983942509	-6.104028225	7.9991045	1.0
[Spine1]
75	2.519402869e-06	100.8345108	-10.00804329	0.6319852471	-3.056780577	1.360730767	1.0
76	2.519402869e-06	100.8345108	-10.00804329	0.3906754553	-2.927417278	1.315448284	1.0
77	2.519402869e-06	100.8345108	-10.00804329	0.2591218352	-2.506294966	1.209564805	1.0
78	2.519402869e-06	100.8345108	-10.00804329	0.2793741524	-1.919861078	1.008005857	1.0
[Spine2]
75	3.4574864e-06	91.00010681	-13.73417091	0.6067811251	-3.068461895	1.150858641	1.0
76	3.4574864e-06	91.00010681	-13.73417091	0.3661811948	-2.952815056	1.048042774	1.0
77	3.4574864e-06	91.00010681	-13.73417091	0.2372553796	-2.543455124	0.8830151558	1.0
78	3.4574864e-06	91.00010681	-13.73417091	0.2621029317	-1.963520885	0.6200354099	1.0
[Neck]
75	6.334285445e-06	166.7166901	-25.16167831	5.727459908	2.023926973	-1.623560071	1.0
76	6.334285445e-06	166.7166901	-25.16167831	6.17829752	2.156452417	-1.769756436	1.0
77	6.334285445e-06	166.7166901	-25.16167831	6.297924042	2.263558865	-2.094718933	1.0
78	6.334285445e-06	166.7166901	-25.16167831	6.107753277	2.315391541	-2.592705011	1.0
[Head]
75	-4.242318937e-06	96.17874908	16.85007477	0.5002724528	13.47061634	-12.89396954	1.0
76	-4.242318937e-06	96.17874908	16.85007477	1.128235817	16.39285469	-12.68149948	1.0
77	-4.242318937e-06	96.17874908	16.85007477	0.7476712465	18.84959984	-13.04562187	1.0
78	-4.242318937e-06	96.17874908	16.85007477	-1.046716928	20.36050987	-13.98724365	1.0
[LeftEye]
75	30.67560577	64.09507751	92.83554077	0	0	0	1.0
76	30.67560577	64.09507751	92.83554077	0	0	0	1.0
77	30.67560577	64.09507751	92.83554077	0	0	0	1.0
78	30.67560577	64.09507751	92.83554077	0	0	0	1.0
[RightEye]
75	-30.67550468	64.09500122	92.83547211	0	0	0	1.0
76	-30.67550468	64.09500122	92.83547211	0	0	0	1.0
77	-30.67550468	64.09500122	92.83547211	0	0	0	1.0
78	-30.67550468	64.09500122	92.83547211	0	0	0	1.0
[LeftShoulder]
75	45.70446396	109.4598465	-26.27988052	6.205895424	-19.92762566	-11.21432018	1.0
76	45.70446396	109.4598465	-26.27988052	5.187925339	-17.48836708	-13.51623249	1.0
77	45.70446396	109.4598465	-26.27988052	4.396398067	-15.06195354	-16.66069221	1.0
78	45.70446396	109.4598465	-26.27988052	3.63834095	-12.91190147	-19.01678658	1.0
[LeftArm]
75	105.9236984	-5.245829105	-22.32120132	-38.23559952	-7.888020515	-23.53692055	1.0
76	105.9236984	-5.245829105	-22.32120132	-44.03694534	-7.923849106	-15.0476675	1.0
77	105.9236984	-5.245829105	-22.32120132	-49.06558609	-5.744715214	-8.646385193	1.0
78	105.9236984	-5.245829105	-22.32120132	-51.17304993	-0.9892937541	-6.522465706	1.0
[LeftForeArm]
75	278.4151917	-0.0008942864952	0.0003745891154	50.13900375	-63.82931519	-41.84838104	1.0
76	278.4151917	-0.0008942864952	0.0003745891154	33.85808182	-45.97896576	-27.87939835	1.0
77	278.4151917	-0.0008942864952	0.0003745891154	28.96770096	-29.20875168	-21.40412903	1.0
78	278.4151917	-0.0008942864952	0.0003745891154	26.94516182	-26.98999214	-19.58473969	1.0
[LeftHand]
75	283.2883911	-0.0001744071778	0.0003780452244	-43.16440964	-5.277189255	9.702771187	1.0
76	283.2883911	-0.0001744071778	0.0003780452244	-43.25310516	-6.950340271	8.996030807	1.0
77	283.2883911	-0.0001744071778	0.0003780452244	-43.28310776	-7.706457615	9.42660141	1.0
78	283.2883911	-0.0001744071778	0.0003780452244	-43.28364182	-7.63574934	9.695570946	1.0
[LeftHandThumb1]
75	24.66140366	-15.7504921	26.82413483	-16.80913162	-1.836842656	-9.14248848	1.0
76	24.66140366	-15.7504921	26.82413483	-16.95552826	-1.751204848	-9.270300865	1.0
77	24.66140366	-15.7504921	26.82413483	-17.10693359	-1.657166481	-9.399760246	1.0
78	24.66140366	-15.7504921	26.82413483	-17.2626667	-1.555951953	-9.530574799	1.0
[LeftHandThumb2]
75	32.29803848	-18.6469059	18.64681244	27.45049858	31.03474045	28.32986069	1.0
76	32.29803848	-18.6469059	18.64681244	27.69415474	31.0637188	28.52322197	1.0
77	32.29803848	-18.6469059	18.64681244	27.95573616	31.09209633	28.72814178	1.0
78	32.29803848	-18.6469059	18.64681244	28.23285484	31.11967659	28.9429493	1.0
[LeftHandThumb3]
75	26.52565002	-15.31492996	15.31471634	-9.629160881	21.18593407	4.870184422	1.0
76	26.52565002	-15.31492996	15.31471634	-9.599284172	21.44605637	4.919786453	1.0
77	26.52565002	-15.31492996	15.31471634	-9.559070587	21.72683144	4.98293066	1.0
78	26.52565002	-15.31492996	15.31471634	-9.509753227	22.02533913	5.058100224	1.0
[LeftHandThumb4]
75	19.54566956	-11.2850008	11.28492165	0	0	0	1.0
76	19.54566956	-11.2850008	11.28492165	0	0	0	1.0
77	19.54566956	-11.2850008	11.28492165	0	0	0	1.0
78	19.54566956	-11.2850008	11.28492165	0	0	0	1.0
[LeftHandIndex1]
75	91.09301758	-5.170834064	22.6007309	-6.478494644	6.435913086	-74.5947876	1.0
76	91.09301758	-5.170834064	22.6007309	-6.513406277	6.528762341	-75.22955322	1.0
77	91.09301758	-5.170834064	22.6007309	-6.548471451	6.630745888	-75.89109802	1.0
78	91.09301758	-5.170834064	22.6007309	-6.583444595	6.740356445	-76.57545471	1.0
[LeftHandIndex2]
75	36.76409531	-6.939138257e-05	0.0002924251603	-2.496218681	4.533231258	-52.41261673	1.0
76	36.76409531	-6.939138257e-05	0.0002924251603	-2.52903676	4.546571255	-52.66006851	1.0
77	36.76409531	-6.939138257e-05	0.0002924251603	-2.562504768	4.560102463	-52.91190338	1.0
78	36.76409531	-6.939138257e-05	0.0002924251603	-2.59651947	4.573671818	-53.16730881	1.0
[LeftHandIndex3]
75	28.83062553	0.000385119667	-0.0004276481632	-0.7584697008	4.606430054	-44.63863754	1.0
76	28.83062553	0.000385119667	-0.0004276481632	-0.7727535963	4.623957157	-44.84519958	1.0
77	28.83062553	0.000385119667	-0.0004276481632	-0.7873462439	4.641708851	-45.0553093	1.0
78	28.83062553	0.000385119667	-0.0004276481632	-0.8022465706	4.659640312	-45.26828766	1.0
[LeftHandIndex4]
75	23.92720032	0.0003702590766	0.0003355443478	0	0	0	1.0
76	23.92720032	0.0003702590766	0.0003355443478	0	0	0	1.0
77	23.92720032	0.0003702590766	0.0003355443478	0	0	0	1.0
78	23.92720032	0.0003702590766	0.0003355443478	0	0	0	1.0
[LeftHandMiddle1]
75	95.33401489	-0.000339240476	0.0001393702551	-9.635731697	8.241260529	-73.54380035	1.0
76	95.33401489	-0.000339240476	0.0001393702551	-9.70318222	8.248363495	-74.10739136	1.0
77	95.33401489	-0.000339240476	0.0001393702551	-9.771520615	8.255011559	-74.69235992	1.0
78	95.33401489	-0.000339240476	0.0001393702551	-9.840567589	8.261043549	-75.29550171	1.0
[LeftHandMiddle2]
75	36.98236847	1.961359158e-05	0.0001791696704	-3.474551439	6.592137814	-77.97276306	1.0
76	36.98236847	1.961359158e-05	0.0001791696704	-3.503455639	6.606812	-78.40364075	1.0
77	36.98236847	1.961359158e-05	0.0001791696704	-3.532984972	6.621391773	-78.84217834	1.0
78	36.98236847	1.961359158e-05	0.0001791696704	-3.562971592	6.635915756	-79.28697968	1.0
[LeftHandMiddle3]
75	29.50921631	-0.0003937608562	0.0001644795993	-2.064898729	4.425352097	-49.9610672	1.0
76	29.50921631	-0.0003937608562	0.0001644795993	-2.084587336	4.440362453	-50.20115662	1.0
77	29.50921631	-0.0003937608562	0.0001644795993	-2.104668856	4.455586433	-50.44540405	1.0
78	29.50921631	-0.0003937608562	0.0001644795993	-2.125108004	4.470925808	-50.69303131	1.0
[LeftHandMiddle4]
75	28.3390255	-0.0003893481917	-9.504223272e-05	0	0	0	1.0
76	28.3390255	-0.0003893481917	-9.504223272e-05	0	0	0	1.0
77	28.3390255	-0.0003893481917	-9.504223272e-05	0	0	0	1.0
78	28.3390255	-0.0003893481917	-9.504223272e-05	0	0	0	1.0
[LeftHandRing1]
75	91.04527283	-0.4393950403	-18.65084648	-14.76314735	9.220328331	-81.59189606	1.0
76	91.04527283	-0.4393950403	-18.65084648	-14.83609962	9.14602375	-82.1036911	1.0
77	91.04527283	-0.4393950403	-18.65084648	-14.90940189	9.064381599	-82.62844849	1.0
78	91.04527283	-0.4393950403	-18.65084648	-14.98292542	8.976331711	-83.1640625	1.0
[LeftHandRing2]
75	31.54026794	-6.55346812e-05	0.000104257444	-3.339713812	7.549786568	-89.40966034	1.0
76	31.54026794	-6.55346812e-05	0.000104257444	-3.339155912	7.567844868	-89.84511566	1.0
77	31.54026794	-6.55346812e-05	0.000104257444	-3.338589191	7.585893154	-90.28825378	1.0
78	31.54026794	-6.55346812e-05	0.000104257444	-3.338009596	7.603866577	-90.73770142	1.0
[LeftHandRing3]
75	29.37672424	-0.0004545861739	-6.864757597e-05	0.9363541603	5.185209274	-44.65790939	1.0
76	29.37672424	-0.0004545861739	-6.864757597e-05	0.9564219713	5.20797348	-44.85468674	1.0
77	29.37672424	-0.0004545861739	-6.864757597e-05	0.9768012166	5.2311306	-45.05487442	1.0
78	29.37672424	-0.0004545861739	-6.864757597e-05	0.9974390864	5.254551888	-45.25782013	1.0
[LeftHandRing4]
75	26.47452545	-0.0004980441299	7.070515267e-07	0	0	0	1.0
76	26.47452545	-0.0004980441299	7.070515267e-07	0	0	0	1.0
77	26.47452545	-0.0004980441299	7.070515267e-07	0	0	0	1.0
78	26.47452545	-0.0004980441299	7.070515267e-07	0	0	0	1.0
[LeftHandPinky1]
75	80.77777863	-4.886682034	-38.06066895	-21.71630669	9.062125206	-90.30148315	1.0
76	80.77777863	-4.886682034	-38.06066895	-21.7525959	8.872262955	-90.6872406	1.0
77	80.77777863	-4.886682034	-38.06066895	-21.7854023	8.665687561	-91.07151031	1.0
78	80.77777863	-4.886682034	-38.06066895	-21.81522179	8.444641113	-91.45415497	1.0
[LeftHandPinky2]
75	36.00034332	-2.252215199e-05	-0.0002623879409	-0.1503475606	9.490608215	-77.40977478	1.0
76	36.00034332	-2.252215199e-05	-0.0002623879409	-0.1648681015	9.526928902	-77.81295776	1.0
77	36.00034332	-2.252215199e-05	-0.0002623879409	-0.17975986	9.56363678	-78.22344208	1.0
78	36.00034332	-2.252215199e-05	-0.0002623879409	-0.1948815733	9.600569725	-78.63983154	1.0
[LeftHandPinky3]
75	21.14211655	0.0001953828178	-2.864415183e-05	-1.985423326	4.594701767	-48.51316071	1.0
76	21.14211655	0.0001953828178	-2.864415183e-05	-1.969738364	4.607386589	-48.70844269	1.0
77	21.14211655	0.0001953828178	-2.864415183e-05	-1.953783631	4.6202631	-48.90706635	1.0
78	21.14211655	0.0001953828178	-2.864415183e-05	-1.937672615	4.633270741	-49.10845566	1.0
[LeftHandPinky4]
75	19.7568264	0.0001240565616	-0.0004430140834	0	0	0	1.0
76	19.7568264	0.0001240565616	-0.0004430140834	0	0	0	1.0
77	19.7568264	0.0001240565616	-0.0004430140834	0	0	0	1.0
78	19.7568264	0.0001240565616	-0.0004430140834	0	0	0	1.0
[RightShoulder]
75	-45.69969559	109.4617615	-26.28017426	11.60105705	-5.534235001	5.942701817	1.0
76	-45.69969559	109.4617615	-26.28017426	9.656280518	-3.424508095	4.58800602	1.0
77	-45.69969559	109.4617615	-26.28017426	7.11184454	-0.2653606236	3.482295036	1.0
78	-45.69969559	109.4617615	-26.28017426	4.026994705	3.063177109	2.596795797	1.0
[RightArm]
75	-105.9284363	-5.247983932	-22.32098579	6.547293186	7.227962494	35.19828796	1.0
76	-105.9284363	-5.247983932	-22.32098579	-10.9139843	16.72481155	24.9142704	1.0
77	-105.9284363	-5.247983932	-22.32098579	-31.01143837	24.5208931	13.74133873	1.0
78	-105.9284363	-5.247983932	-22.32098579	-48.13508987	30.2016983	4.135060787	1.0
[RightForeArm]
75	-278.4151917	-0.0003307921579	0.0001167631053	-106.4150772	68.92749786	-135.853302	1.0
76	-278.4151917	-0.0003307921579	0.0001167631053	-120.2745743	78.54701996	-145.518631	1.0
77	-278.4151917	-0.0003307921579	0.0001167631053	-277.9375916	86.62332153	-300.2604065	1.0
78	-278.4151917	-0.0003307921579	0.0001167631053	-307.6287537	69.32355499	-328.9834595	1.0
[RightHand]
75	-283.2883911	-1.581417109e-06	0.000558160129	-43.55762863	2.329180956	1.346289277	1.0
76	-283.2883911	-1.581417109e-06	0.000558160129	-41.74101257	1.173103094	-4.412855625	1.0
77	-283.2883911	-1.581417109e-06	0.000558160129	-37.97149277	1.159819126	-7.131508827	1.0
78	-283.2883911	-1.581417109e-06	0.000558160129	-32.64549255	1.677661896	-7.491856098	1.0
[RightHandPinky1]
75	-80.76674652	-4.88459301	-38.06010437	-20.56181717	-6.873409271	91.8422699	1.0
76	-80.76674652	-4.88459301	-38.06010437	-20.6196537	-6.594365597	92.51428223	1.0
77	-80.76674652	-4.88459301	-38.06010437	-20.67610741	-6.323327065	93.16902924	1.0
78	-80.76674652	-4.88459301	-38.06010437	-20.73124886	-6.061176777	93.80428314	1.0
[RightHandPinky2]
75	-36.00034332	0.0003967665543	0.0005081442068	0.7476497889	-8.524959564	79.81576538	1.0
76	-36.00034332	0.0003967665543	0.0005081442068	0.736952126	-8.580830574	80.49642944	1.0
77	-36.00034332	0.0003967665543	0.0005081442068	0.7264044881	-8.634595871	81.15951538	1.0
78	-36.00034332	0.0003967665543	0.0005081442068	0.7160762548	-8.686015129	81.80265045	1.0
[RightHandPinky3]
75	-21.14211655	0.0001513792522	0.0001479376951	-1.469413161	-3.758033752	49.67438889	1.0
76	-21.14211655	0.0001513792522	0.0001479376951	-1.43772018	-3.774496555	50.00130081	1.0
77	-21.14211655	0.0001513792522	0.0001479376951	-1.407071352	-3.790369987	50.32082367	1.0
78	-21.14211655	0.0001513792522	0.0001479376951	-1.377637744	-3.805585861	50.63169861	1.0
[RightHandPinky4]
75	-19.7568264	-0.000185219571	-9.839841368e-06	0	0	0	1.0
76	-19.7568264	-0.000185219571	-9.839841368e-06	0	0	0	1.0
77	-19.7568264	-0.000185219571	-9.839841368e-06	0	0	0	1.0
78	-19.7568264	-0.000185219571	-9.839841368e-06	0	0	0	1.0
[RightHandRing1]
75	-91.03588104	-0.4391434789	-18.65072441	-13.97498131	-7.629881382	83.81032562	1.0
76	-91.03588104	-0.4391434789	-18.65072441	-14.08064938	-7.518233299	84.6523056	1.0
77	-91.03588104	-0.4391434789	-18.65072441	-14.18318272	-7.409158707	85.47105408	1.0
78	-91.03588104	-0.4391434789	-18.65072441	-14.28237438	-7.303022861	86.26389313	1.0
[RightHandRing2]
75	-31.54026794	0.0002399729856	0.0004885121016	-2.095637798	-6.459703922	91.94952393	1.0
76	-31.54026794	0.0002399729856	0.0004885121016	-2.078660965	-6.486979485	92.68257904	1.0
77	-31.54026794	0.0002399729856	0.0004885121016	-2.062225342	-6.512705326	93.39688873	1.0
78	-31.54026794	0.0002399729856	0.0004885121016	-2.046350718	-6.536668301	94.08995056	1.0
[RightHandRing3]
75	-29.37672424	-0.0004160065437	-0.0003966063377	1.417512178	-4.4599967	45.84316635	1.0
76	-29.37672424	-0.0004160065437	-0.0003966063377	1.456328511	-4.493039131	46.17313385	1.0
77	-29.37672424	-0.0004160065437	-0.0003966063377	1.4939183	-4.525063038	46.49557877	1.0
78	-29.37672424	-0.0004160065437	-0.0003966063377	1.530123115	-4.556030273	46.80940247	1.0
[RightHandRing4]
75	-26.47452545	0.0002460821415	-2.294923434e-05	0	0	0	1.0
76	-26.47452545	0.0002460821415	-2.294923434e-05	0	0	0	1.0
77	-26.47452545	0.0002460821415	-2.294923434e-05	0	0	0	1.0
78	-26.47452545	0.0002460821415	-2.294923434e-05	0	0	0	1.0
[RightHandMiddle1]
75	-95.32502747	-0.0001631230261	0.0001679184206	-8.979554176	-7.093294144	76.0371933	1.0
76	-95.32502747	-0.0001631230261	0.0001679184206	-9.07395649	-7.09726429	76.94485474	1.0
77	-95.32502747	-0.0001631230261	0.0001679184206	-9.165568352	-7.099936008	77.82713318	1.0
78	-95.32502747	-0.0001631230261	0.0001679184206	-9.254076004	-7.10133028	78.6811142	1.0
[RightHandMiddle2]
75	-36.98236847	0.000150669599	-0.0002254552383	-2.648722172	-5.495294571	80.53683472	1.0
76	-36.98236847	0.000150669599	-0.0002254552383	-2.683197021	-5.514080524	81.26491547	1.0
77	-36.98236847	0.000150669599	-0.0002254552383	-2.716910124	-5.531630039	81.97374725	1.0
78	-36.98236847	0.000150669599	-0.0002254552383	-2.749736071	-5.547892094	82.66085052	1.0
[RightHandMiddle3]
75	-29.50921631	-3.113244929e-06	-3.03402544e-06	-1.73151207	-3.57886982	51.38486099	1.0
76	-29.50921631	-3.113244929e-06	-3.03402544e-06	-1.75864172	-3.598105669	51.78816986	1.0
77	-29.50921631	-3.113244929e-06	-3.03402544e-06	-1.785299301	-3.616736412	52.18201828	1.0
78	-29.50921631	-3.113244929e-06	-3.03402544e-06	-1.811321259	-3.634701252	52.56505203	1.0
[RightHandMiddle4]
75	-28.3390255	8.05324089e-05	0.0005378770875	0	0	0	1.0
76	-28.3390255	8.05324089e-05	0.0005378770875	0	0	0	1.0
77	-28.3390255	8.05324089e-05	0.0005378770875	0	0	0	1.0
78	-28.3390255	8.05324089e-05	0.0005378770875	0	0	0	1.0
[RightHandIndex1]
75	-91.08280945	-5.167889595	22.60116386	-5.60034132	-5.71776247	77.45240021	1.0
76	-91.08280945	-5.167889595	22.60116386	-5.637528896	-5.83758688	78.46527863	1.0
77	-91.08280945	-5.167889595	22.60116386	-5.673459053	-5.952068329	79.44980621	1.0
78	-91.08280945	-5.167889595	22.60116386	-5.707805157	-6.060830593	80.40270233	1.0
[RightHandIndex2]
75	-36.76409531	0.0001922715601	0.0003235567128	-2.201114893	-3.644380569	53.90394974	1.0
76	-36.76409531	0.0001922715601	0.0003235567128	-2.250407934	-3.660983324	54.32237244	1.0
77	-36.76409531	0.0001922715601	0.0003235567128	-2.298498869	-3.677002192	54.73044968	1.0
78	-36.76409531	0.0001922715601	0.0003235567128	-2.345326185	-3.692418575	55.12670135	1.0
[RightHandIndex3]
75	-28.83062553	-0.0004960121587	0.0004044897505	-0.4798891544	-3.847797871	45.87182617	1.0
76	-28.83062553	-0.0004960121587	0.0004044897505	-0.499143213	-3.871573687	46.21800232	1.0
77	-28.83062553	-0.0004960121587	0.0004044897505	-0.5181103945	-3.894679546	46.55619431	1.0
78	-28.83062553	-0.0004960121587	0.0004044897505	-0.5366304517	-3.917071104	46.88523865	1.0
[RightHandIndex4]
75	-23.92720032	0.0002681470069	0.0002802013478	0	0	0	1.0
76	-23.92720032	0.0002681470069	0.0002802013478	0	0	0	1.0
77	-23.92720032	0.0002681470069	0.0002802013478	0	0	0	1.0
78	-23.92720032	0.0002681470069	0.0002802013478	0	0	0	1.0
[RightHandThumb1]
75	-24.64805984	-15.72714233	26.82626534	-18.71213722	3.916277647	9.838762283	1.0
76	-24.64805984	-15.72714233	26.82626534	-18.95442772	3.80739975	10.05678844	1.0
77	-24.64805984	-15.72714233	26.82626534	-19.19040489	3.702806711	10.26945496	1.0
78	-24.64805984	-15.72714233	26.82626534	-19.41916084	3.6027174	10.47595978	1.0
[RightHandThumb2]
75	-32.29771805	-18.6470871	18.64718437	30.32717323	-32.74230957	-30.97493553	1.0
76	-32.29771805	-18.6470871	18.64718437	30.71287155	-32.7815361	-31.2868042	1.0
77	-32.29771805	-18.6470871	18.64718437	31.08775711	-32.81886673	-31.5890274	1.0
78	-32.29771805	-18.6470871	18.64718437	31.45048332	-32.8543396	-31.8805294	1.0
[RightHandThumb3]
75	-26.52605057	-15.31449318	15.31445599	-6.065440655	-27.99238205	-5.801514626	1.0
76	-26.52605057	-15.31449318	15.31445599	-6.03785181	-28.38289452	-5.850094318	1.0
77	-26.52605057	-15.31449318	15.31445599	-6.011707306	-28.76155663	-5.8972826	1.0
78	-26.52605057	-15.31449318	15.31445599	-5.98701334	-29.12709999	-5.942953587	1.0
[RightHandThumb4]
75	-19.54580498	-11.28461742	11.28507042	0	0	0	1.0
76	-19.54580498	-11.28461742	11.28507042	0	0	0	1.0
77	-19.54580498	-11.28461742	11.28507042	0	0	0	1.0
78	-19.54580498	-11.28461742	11.28507042	0	0	0	1.0
[LeftUpLeg]
75	82.07781982	-67.51714325	-15.99555588	-16.73464966	30.01162529	5.758785725	1.0
76	82.07781982	-67.51714325	-15.99555588	-17.3997097	34.48162079	2.515827656	1.0
77	82.07781982	-67.51714325	-15.99555588	-18.50602722	38.3797226	-0.8602289557	1.0
78	82.07781982	-67.51714325	-15.99555588	-19.62914658	41.3993454	-3.783727169	1.0
[LeftLeg]
75	-4.110157988e-06	-443.7047119	2.846426487	34.02596664	-8.373476028	-4.143630028	1.0
76	-4.110157988e-06	-443.7047119	2.846426487	32.98285675	-10.73859501	-1.500201702	1.0
77	-4.110157988e-06	-443.7047119	2.846426487	33.89614105	-12.12762737	0.4211708605	1.0
78	-4.110157988e-06	-443.7047119	2.846426487	37.30719376	-12.70448399	0.4604668915	1.0
[LeftFoot]
75	4.716393505e-06	-444.278717	-29.82190704	-10.77229404	-1.332841635	-8.582856178	1.0
76	4.716393505e-06	-444.278717	-29.82190704	-9.157323837	-2.879078865	-9.230964661	1.0
77	4.716393505e-06	-444.278717	-29.82190704	-8.87101078	-4.006230354	-9.324759483	1.0
78	4.716393505e-06	-444.278717	-29.82190704	-10.86740303	-4.271057606	-9.03188324	1.0
[LeftToeBase]
75	-2.960988058e-05	-87.28669739	107.1055984	-1.930793166	4.624595931e-06	-1.504632905e-06	1.0
76	-2.960988058e-05	-87.28669739	107.1055984	-2.082314968	8.305807569e-06	-3.482321063e-07	1.0
77	-2.960988058e-05	-87.28669739	107.1055984	-3.047800064	1.683756636e-05	-5.414728548e-06	1.0
78	-2.960988058e-05	-87.28669739	107.1055984	-3.853355408	-3.377050689e-06	-7.654748515e-07	1.0
[RightUpLeg]
75	-82.07795715	-67.51662445	-15.99559402	-25.51866722	-18.4158783	-1.095039129	1.0
76	-82.07795715	-67.51662445	-15.99559402	-26.75110435	-17.775774	-1.261497378	1.0
77	-82.07795715	-67.51662445	-15.99559402	-29.38354111	-17.06879807	-1.94607842	1.0
78	-82.07795715	-67.51662445	-15.99559402	-33.15471649	-16.40272331	-3.407063484	1.0
[RightLeg]
75	8.435572454e-07	-443.7053833	2.861563921	34.85279465	-1.69657445	-13.05882263	1.0
76	8.435572454e-07	-443.7053833	2.861563921	33.96720123	-1.997664928	-13.03565311	1.0
77	8.435572454e-07	-443.7053833	2.861563921	35.53304672	-0.8238373995	-12.47661781	1.0
78	8.435572454e-07	-443.7053833	2.861563921	39.88034439	2.042559624	-10.98596096	1.0
[RightFoot]
75	9.644581951e-06	-444.2773132	-29.83789063	-9.916563988	-3.539609909	9.379764557	1.0
76	9.644581951e-06	-444.2773132	-29.83789063	-9.166266441	-0.7367521524	8.073893547	1.0
77	9.644581951e-06	-444.2773132	-29.83789063	-9.474108696	2.306222439	6.69638443	1.0
78	9.644581951e-06	-444.2773132	-29.83789063	-11.23437691	4.3586092	5.300002098	1.0
[RightToeBase]
75	-2.360438157e-05	-87.28668976	107.1056061	0.02645048499	-5.720833087e-06	-3.31087831e-05	1.0
76	-2.360438157e-05	-87.28668976	107.1056061	0.1813857704	-1.528798566e-05	7.375040241e-06	1.0
77	-2.360438157e-05	-87.28668976	107.1056061	0.1451248676	1.040278585e-05	2.37318618e-05	1.0
78	-2.360438157e-05	-87.28668976	107.1056061	0.2101647109	-7.454561768e-08	5.702819635e-06	1.0
[EndOfFile]
